HIERARCHY
ROOT SpineBase
{
  OFFSET 0.000000 0.000000 0.000000
  CHANNELS 6 Xposition Yposition Zposition Zrotation Xrotation Yrotation
  JOINT SpineMid
  {
    OFFSET 0.000000 31.850784 0.000000
    CHANNELS 3 Zrotation Xrotation Yrotation
    JOINT SpineShoulder
    {
      OFFSET -0.077650 23.747189 -0.896994
      CHANNELS 3 Zrotation Xrotation Yrotation
      JOINT Neck
      {
        OFFSET -0.075582 7.887225 -0.669135
        CHANNELS 3 Zrotation Xrotation Yrotation
        JOINT Head
        {
          OFFSET 6.612342 9.661039 0.716959
          CHANNELS 3 Zrotation Xrotation Yrotation
          End Site
          {
            OFFSET 0 0 0
          }
        }
      }
      JOINT ShoulderLeft
      {
        OFFSET -12.130973 -1.869211 -9.952931
        CHANNELS 3 Zrotation Xrotation Yrotation
        JOINT ElbowLeft
        {
          OFFSET -1.397547 -25.942068 -8.649290
          CHANNELS 3 Zrotation Xrotation Yrotation
          JOINT WristLeft
          {
            OFFSET 9.751759 -19.893195 -9.425572
            CHANNELS 3 Zrotation Xrotation Yrotation
            JOINT HandLeft
            {
              OFFSET 4.798029 -5.010439 -4.252561
              CHANNELS 3 Zrotation Xrotation Yrotation
              JOINT HandTipLeft
              {
                OFFSET 3.270822 -3.958393 -2.171424
                CHANNELS 3 Zrotation Xrotation Yrotation
                End Site
                {
                  OFFSET 0 0 0
                }
              }
              JOINT ThumbLeft
              {
                OFFSET -1.788869 -2.234229 -2.753896
                CHANNELS 3 Zrotation Xrotation Yrotation
                End Site
                {
                  OFFSET 0 0 0
                }
              }
            }
          }
        }
      }
      JOINT ShoulderRight
      {
        OFFSET 14.011977 -5.702385 7.894538
        CHANNELS 3 Zrotation Xrotation Yrotation
        JOINT ElbowRight
        {
          OFFSET 4.492042 -30.245824 5.033266
          CHANNELS 3 Zrotation Xrotation Yrotation
          JOINT WristRight
          {
            OFFSET 2.694146 -22.904278 2.351466
            CHANNELS 3 Zrotation Xrotation Yrotation
            JOINT HandRight
            {
              OFFSET 0.312333 -1.750842 -2.142513
              CHANNELS 3 Zrotation Xrotation Yrotation
              JOINT HandTipRight
              {
                OFFSET 0.844486 -2.660857 -0.128253
                CHANNELS 3 Zrotation Xrotation Yrotation
                End Site
                {
                  OFFSET 0 0 0
                }
              }
              JOINT ThumbRight
              {
                OFFSET -1.098592 0.717144 -2.713356
                CHANNELS 3 Zrotation Xrotation Yrotation
                End Site
                {
                  OFFSET 0 0 0
                }
              }
            }
          }
        }
      }
    }
  }
  JOINT HipLeft
  {
    OFFSET -5.496596 2.413205 -7.712114
    CHANNELS 3 Zrotation Xrotation Yrotation
    JOINT KneeLeft
    {
      OFFSET -6.379262 -31.906893 -3.196244
      CHANNELS 3 Zrotation Xrotation Yrotation
      JOINT AnkleLeft
      {
        OFFSET -0.398225 -35.440532 7.036823
        CHANNELS 3 Zrotation Xrotation Yrotation
        JOINT FootLeft
        {
          OFFSET 5.726728 -2.475394 -12.544027
          CHANNELS 3 Zrotation Xrotation Yrotation
          End Site
          {
            OFFSET 0 0 0
          }
        }
      }
    }
  }
  JOINT HipRight
  {
    OFFSET 4.402784 0.408474 0.084100
    CHANNELS 3 Zrotation Xrotation Yrotation
    JOINT KneeRight
    {
      OFFSET 8.122562 -32.903786 -5.974598
      CHANNELS 3 Zrotation Xrotation Yrotation
      JOINT AnkleRight
      {
        OFFSET -3.685244 -35.721056 4.016684
        CHANNELS 3 Zrotation Xrotation Yrotation
        JOINT FootRight
        {
          OFFSET 1.071431 -3.958514 -8.708800
          CHANNELS 3 Zrotation Xrotation Yrotation
          End Site
          {
            OFFSET 0 0 0
          }
        }
      }
    }
  }
}
MOTION
Frames: 6
Frame Time: 0.033333
93.559131 78.164362 224.380453 0.480822 6.009566 9.408558 0.653871 -0.097730 -9.335605 0.669924 0.035214 0.184617 22.660129 -7.098941 1.616901 0.000000 0.000000 0.000000 -9.192562 -13.897088 1.277256 -21.245918 9.702707 17.431574 -3.577741 -5.558058 11.404110 -0.887356 1.215200 -10.693337 0.000000 0.000000 0.000000 0.000000 0.000000 0.000000 1.866480 1.521962 1.588476 -2.410095 16.848238 0.904233 -21.169730 -45.416893 0.423130 -2.379492 35.430608 -3.337814 0.000000 0.000000 0.000000 0.000000 0.000000 0.000000 3.909752 -5.629188 -9.717533 2.878679 5.328967 1.969913 -13.460195 -2.430184 29.668308 0.000000 0.000000 0.000000 -7.766493 3.589257 -6.159553 13.636172 -12.756312 -0.630074 -11.613234 23.671980 12.852593 0.000000 0.000000 0.000000
93.301159 78.281737 222.924607 0.278417 5.939991 10.727161 0.642306 -0.113298 -10.652391 0.668100 0.035697 0.173555 23.529356 -7.157984 1.799965 0.000000 0.000000 0.000000 -8.834484 -13.665461 1.297769 -21.184289 10.586025 18.040453 -2.131228 -4.216825 12.518646 -2.610774 0.795181 -10.388132 0.000000 0.000000 0.000000 0.000000 0.000000 0.000000 2.213617 1.552835 1.637810 -3.084365 16.763098 0.851377 -21.129541 -46.609015 0.372870 -1.319266 34.984923 -4.597700 0.000000 0.000000 0.000000 0.000000 0.000000 0.000000 4.188357 -6.843943 -10.762754 2.535731 5.745829 1.739851 -13.718964 -1.896544 30.847110 0.000000 0.000000 0.000000 -8.506952 3.957892 -7.259892 15.920470 -7.146007 -1.337482 -14.797087 15.575391 16.134373 0.000000 0.000000 0.000000
93.084470 78.337604 221.269853 0.062420 5.833083 11.955501 0.643220 -0.140047 -11.877908 0.675792 0.031251 0.163290 24.444666 -7.208532 2.006899 0.000000 0.000000 0.000000 -8.560804 -13.536953 1.334685 -21.065605 11.047172 18.261870 -2.234425 -3.856682 13.266391 -1.158683 0.221201 -11.617823 0.000000 0.000000 0.000000 0.000000 0.000000 0.000000 2.625121 1.817786 1.719239 -3.744953 16.642666 0.764408 -21.041513 -47.666991 0.204822 0.312115 35.764936 -5.336682 0.000000 0.000000 0.000000 0.000000 0.000000 0.000000 4.497462 -7.909800 -11.748369 2.154225 5.822351 1.571624 -13.947444 -1.171643 32.019695 0.000000 0.000000 0.000000 -8.887722 4.327573 -8.315035 17.354449 -2.257989 -2.115220 -15.891915 10.466011 16.669459 0.000000 0.000000 0.000000
92.911612 78.330669 219.840979 -0.198985 5.778923 12.715520 0.654560 -0.159518 -12.633631 0.690609 0.027068 0.152977 25.396766 -7.346329 2.284431 0.000000 0.000000 0.000000 -8.355084 -13.774762 1.379854 -20.958021 10.863496 17.951861 -3.193155 -3.307913 14.901117 1.806047 -0.149909 -13.193867 0.000000 0.000000 0.000000 0.000000 0.000000 0.000000 3.191922 2.113081 1.841051 -4.428979 16.572101 0.645098 -20.407283 -47.564149 0.316448 0.974153 34.929524 -5.913706 0.000000 0.000000 0.000000 0.000000 0.000000 0.000000 4.761831 -9.002168 -12.253805 2.011618 6.198611 1.386002 -14.264611 -0.693427 32.916684 0.000000 0.000000 0.000000 -9.000854 4.102870 -9.106686 17.739086 2.314338 -2.903853 -16.158237 6.164651 17.089963 0.000000 0.000000 0.000000
92.802861 78.332845 217.972481 -0.577738 5.788238 13.888143 0.665575 -0.183566 -13.799778 0.707665 0.025677 0.138298 26.638448 -7.420537 2.491880 0.000000 0.000000 0.000000 -8.140081 -14.429030 1.444508 -20.990332 10.745010 17.720276 -5.383015 -4.924114 14.334637 5.241859 1.149244 -12.864682 0.000000 0.000000 0.000000 0.000000 0.000000 0.000000 3.762263 2.660271 1.994809 -4.743973 16.062835 0.477553 -20.671176 -48.744990 -0.191363 2.036015 34.983873 -6.658473 0.000000 0.000000 0.000000 0.000000 0.000000 0.000000 4.998835 -9.810094 -13.252134 2.226551 5.373521 1.403859 -14.837205 0.584655 34.068617 0.000000 0.000000 0.000000 -8.854130 3.887391 -10.315800 17.647135 4.986952 -3.397444 -16.258401 3.693007 17.870085 0.000000 0.000000 0.000000
92.734608 78.328248 216.105805 -1.036707 5.866099 15.285695 0.682869 -0.207156 -15.187876 0.729455 0.027607 0.121773 28.013578 -7.326010 2.488979 0.000000 0.000000 0.000000 -7.963789 -15.261243 1.520962 -21.205819 9.932964 17.126662 -7.476197 -6.516878 13.578515 8.265779 2.958808 -12.083448 0.000000 0.000000 0.000000 0.000000 0.000000 0.000000 4.402649 3.135947 2.162501 -5.062631 15.739777 0.327587 -20.327519 -49.797215 -1.062535 2.094881 34.691221 -6.512699 0.000000 0.000000 0.000000 0.000000 0.000000 0.000000 5.155977 -10.733886 -14.465088 2.329180 4.635788 1.381910 -15.195908 1.830002 35.106760 0.000000 0.000000 0.000000 -8.508971 3.126365 -11.943515 16.967207 6.775910 -3.632175 -15.999070 2.622335 18.702196 0.000000 0.000000 0.000000
